<?xml version="1.0" encoding="UTF-8"?><svg id="Calque_2" xmlns="http://www.w3.org/2000/svg" viewBox="0 0 27.19 28.13"><defs><style>.cls-1{fill:#947151;}.cls-2{fill:#83bf4f;}.cls-2,.cls-3{fill-rule:evenodd;}.cls-3{fill:#ef4d3c;}</style></defs><g id="Calque_1-2"><path class="cls-2" d="m13.33,1.36c.53,1.16-.25,5.09-.25,5.09,0,0-3.53-2.07-4.05-3.23-.53-1.16,0-2.51,1.19-3.02,1.19-.51,2.58,0,3.11,1.16Z"/><path class="cls-1" d="m14.21,6.71h-1.23c0-2,1.12-5.43,5.63-5.43v1.2c-4.1,0-4.4,3.84-4.4,4.24Z"/><path class="cls-3" d="m13.59,6.49C10.19,3,0,2.85,0,12.81c0,6.3,7.4,15.32,10.63,15.32,1.46,0,1.99-.92,2.84-.92s1.14.91,3.02.91c3.23,0,10.7-8.99,10.7-15.32,0-9.96-10.19-9.81-13.59-6.32Z"/></g></svg>